G04*
G04 #@! TF.GenerationSoftware,Altium Limited,Altium Designer,19.1.5 (86)*
G04*
G04 Layer_Physical_Order=2*
G04 Layer_Color=16711680*
%FSTAX24Y24*%
%MOIN*%
G70*
G01*
G75*
%ADD39C,0.0630*%
%ADD40R,0.0630X0.0630*%
%ADD41C,0.1200*%
%ADD42R,0.0787X0.0787*%
%ADD43C,0.0787*%
%ADD44C,0.1969*%
%ADD45C,0.0850*%
%ADD46C,0.0866*%
%ADD47R,0.0866X0.0866*%
%ADD48O,0.1000X0.1200*%
%ADD49R,0.1600X0.1000*%
%ADD50R,0.1000X0.1600*%
%ADD51C,0.1100*%
%ADD52R,0.0984X0.0984*%
%ADD53R,0.0800X0.0800*%
%ADD54C,0.0800*%
%ADD55O,0.0660X0.1000*%
%ADD56R,0.1000X0.0650*%
%ADD57O,0.1000X0.0650*%
%ADD58C,0.0787*%
G36*
X041334Y010462D02*
X010162D01*
Y049508D01*
X041334D01*
X041334Y010462D01*
D02*
G37*
%LPC*%
G36*
X03975Y048888D02*
X03958Y048874D01*
X039414Y048834D01*
X039256Y048769D01*
X039111Y04868D01*
X038981Y048569D01*
X03887Y048439D01*
X038781Y048294D01*
X038716Y048136D01*
X038676Y04797D01*
X038662Y0478D01*
X038676Y04763D01*
X038716Y047464D01*
X038781Y047306D01*
X03887Y047161D01*
X038981Y047031D01*
X039111Y04692D01*
X039256Y046831D01*
X039414Y046766D01*
X03958Y046726D01*
X03975Y046712D01*
X03992Y046726D01*
X040086Y046766D01*
X040244Y046831D01*
X040389Y04692D01*
X040519Y047031D01*
X04063Y047161D01*
X040719Y047306D01*
X040784Y047464D01*
X040824Y04763D01*
X040838Y0478D01*
X040824Y04797D01*
X040784Y048136D01*
X040719Y048294D01*
X04063Y048439D01*
X040519Y048569D01*
X040389Y04868D01*
X040244Y048769D01*
X040086Y048834D01*
X03992Y048874D01*
X03975Y048888D01*
D02*
G37*
G36*
X0116D02*
X01143Y048874D01*
X011264Y048834D01*
X011106Y048769D01*
X010961Y04868D01*
X010831Y048569D01*
X01072Y048439D01*
X010631Y048294D01*
X010566Y048136D01*
X010526Y04797D01*
X010512Y0478D01*
X010526Y04763D01*
X010566Y047464D01*
X010631Y047306D01*
X01072Y047161D01*
X010831Y047031D01*
X010961Y04692D01*
X011106Y046831D01*
X011264Y046766D01*
X01143Y046726D01*
X0116Y046712D01*
X01177Y046726D01*
X011936Y046766D01*
X012094Y046831D01*
X012239Y04692D01*
X012369Y047031D01*
X01248Y047161D01*
X012569Y047306D01*
X012634Y047464D01*
X012674Y04763D01*
X012688Y0478D01*
X012674Y04797D01*
X012634Y048136D01*
X012569Y048294D01*
X01248Y048439D01*
X012369Y048569D01*
X012239Y04868D01*
X012094Y048769D01*
X011936Y048834D01*
X01177Y048874D01*
X0116Y048888D01*
D02*
G37*
G36*
X0218Y045253D02*
X021682Y045241D01*
X021569Y045207D01*
X021465Y045151D01*
X021374Y045076D01*
X02135Y045048D01*
X02025D01*
X020226Y045076D01*
X020135Y045151D01*
X020031Y045207D01*
X019918Y045241D01*
X0198Y045253D01*
X019682Y045241D01*
X019569Y045207D01*
X019465Y045151D01*
X019374Y045076D01*
X019299Y044985D01*
X019243Y044881D01*
X019209Y044768D01*
X019197Y04465D01*
Y04445D01*
X019209Y044332D01*
X019243Y044219D01*
X019299Y044115D01*
X019302Y044111D01*
Y041233D01*
X019267D01*
Y040167D01*
X020333D01*
Y041233D01*
X020298D01*
Y044052D01*
X02135D01*
X021374Y044024D01*
X021465Y043949D01*
X021569Y043893D01*
X021682Y043859D01*
X0218Y043847D01*
X021918Y043859D01*
X022031Y043893D01*
X022135Y043949D01*
X022226Y044024D01*
X022268Y044074D01*
X024319D01*
X024347Y044052D01*
X02446Y043991D01*
X024582Y043954D01*
X02471Y043942D01*
X024837Y043954D01*
X02496Y043991D01*
X025073Y044052D01*
X025128Y044097D01*
X027299D01*
X036364Y035032D01*
Y024184D01*
X036277Y024078D01*
X036212Y023957D01*
X036172Y023825D01*
X036159Y023687D01*
X036172Y02355D01*
X036212Y023418D01*
X036277Y023297D01*
X036365Y02319D01*
X036471Y023103D01*
X036593Y023038D01*
X036725Y022998D01*
X036861Y022984D01*
X037297Y022548D01*
X037297Y022548D01*
X037401Y022469D01*
X037521Y022419D01*
X03765Y022402D01*
X03765Y022402D01*
X038728D01*
X038834Y022315D01*
X038955Y02225D01*
X039087Y02221D01*
X039224Y022197D01*
X039362Y02221D01*
X039494Y02225D01*
X039615Y022315D01*
X039722Y022403D01*
X039809Y022509D01*
X039874Y022631D01*
X039914Y022763D01*
X039928Y0229D01*
X039914Y023037D01*
X039874Y023169D01*
X039809Y023291D01*
X039722Y023397D01*
X039615Y023485D01*
X039494Y02355D01*
X039362Y02359D01*
X039224Y023603D01*
X039087Y02359D01*
X038955Y02355D01*
X038834Y023485D01*
X038728Y023398D01*
X037856D01*
X037566Y023688D01*
X037552Y023825D01*
X037512Y023957D01*
X037447Y024078D01*
X03736Y024184D01*
Y0255D01*
X0374D01*
Y0265D01*
X03736D01*
Y035238D01*
X037343Y035367D01*
X037293Y035487D01*
X037214Y03559D01*
X037214Y03559D01*
X027857Y044947D01*
X027754Y045026D01*
X027634Y045076D01*
X027505Y045093D01*
X027505Y045093D01*
X025128D01*
X025073Y045138D01*
X02496Y045198D01*
X024837Y045235D01*
X02471Y045248D01*
X024582Y045235D01*
X02446Y045198D01*
X024347Y045138D01*
X024265Y04507D01*
X022231D01*
X022226Y045076D01*
X022135Y045151D01*
X022031Y045207D01*
X021918Y045241D01*
X0218Y045253D01*
D02*
G37*
G36*
X0153D02*
X015182Y045241D01*
X015069Y045207D01*
X014965Y045151D01*
X014874Y045076D01*
X01485Y045048D01*
X01375D01*
X013726Y045076D01*
X013635Y045151D01*
X013531Y045207D01*
X013418Y045241D01*
X0133Y045253D01*
X013182Y045241D01*
X013069Y045207D01*
X012965Y045151D01*
X012874Y045076D01*
X012799Y044985D01*
X012743Y044881D01*
X012709Y044768D01*
X012697Y04465D01*
Y04445D01*
X012709Y044332D01*
X012743Y044219D01*
X012799Y044115D01*
X012874Y044024D01*
X012965Y043949D01*
X013069Y043893D01*
X013182Y043859D01*
X0133Y043847D01*
X013418Y043859D01*
X013531Y043893D01*
X013635Y043949D01*
X013726Y044024D01*
X01375Y044052D01*
X01485D01*
X014874Y044024D01*
X014952Y043959D01*
Y0414D01*
X01485D01*
Y0396D01*
X01605D01*
Y0414D01*
X015948D01*
Y044242D01*
X015948Y044242D01*
X015931Y044371D01*
X015902Y044441D01*
X015903Y04445D01*
Y04465D01*
X015891Y044768D01*
X015857Y044881D01*
X015801Y044985D01*
X015726Y045076D01*
X015635Y045151D01*
X015531Y045207D01*
X015418Y045241D01*
X0153Y045253D01*
D02*
G37*
G36*
X040054Y045189D02*
X039927Y045176D01*
X039804Y045139D01*
X039691Y045079D01*
X039592Y044998D01*
X039511Y044899D01*
X039451Y044786D01*
X039414Y044663D01*
X039401Y044536D01*
X039414Y044408D01*
X039451Y044286D01*
X039511Y044173D01*
X039592Y044074D01*
X039691Y043993D01*
X039804Y043932D01*
X039927Y043895D01*
X040054Y043883D01*
X040182Y043895D01*
X040304Y043932D01*
X040417Y043993D01*
X040516Y044074D01*
X040597Y044173D01*
X040658Y044286D01*
X040695Y044408D01*
X040707Y044536D01*
X040695Y044663D01*
X040658Y044786D01*
X040597Y044899D01*
X040516Y044998D01*
X040417Y045079D01*
X040304Y045139D01*
X040182Y045176D01*
X040054Y045189D01*
D02*
G37*
G36*
X01535Y0391D02*
X01355D01*
Y0379D01*
X01535D01*
Y0391D01*
D02*
G37*
G36*
X02455Y035248D02*
X024421Y035231D01*
X024301Y035181D01*
X024198Y035102D01*
X024119Y034999D01*
X024104Y034964D01*
X023996D01*
X023981Y034999D01*
X023902Y035102D01*
X023799Y035181D01*
X023679Y035231D01*
X02355Y035248D01*
X023421Y035231D01*
X023301Y035181D01*
X023198Y035102D01*
X023119Y034999D01*
X023104Y034964D01*
X022996D01*
X022981Y034999D01*
X022902Y035102D01*
X022799Y035181D01*
X022679Y035231D01*
X02255Y035248D01*
X022421Y035231D01*
X022301Y035181D01*
X022198Y035102D01*
X022119Y034999D01*
X022104Y034964D01*
X021996D01*
X021981Y034999D01*
X021902Y035102D01*
X021799Y035181D01*
X021679Y035231D01*
X02155Y035248D01*
X021421Y035231D01*
X021301Y035181D01*
X021198Y035102D01*
X021119Y034999D01*
X021104Y034964D01*
X020996D01*
X020981Y034999D01*
X020902Y035102D01*
X020799Y035181D01*
X020679Y035231D01*
X02055Y035248D01*
X020421Y035231D01*
X020301Y035181D01*
X020198Y035102D01*
X020119Y034999D01*
X020104Y034964D01*
X019996D01*
X019981Y034999D01*
X019902Y035102D01*
X019799Y035181D01*
X019679Y035231D01*
X01955Y035248D01*
X019421Y035231D01*
X019301Y035181D01*
X019198Y035102D01*
X019119Y034999D01*
X019104Y034964D01*
X018996D01*
X018981Y034999D01*
X018902Y035102D01*
X018799Y035181D01*
X018679Y035231D01*
X01855Y035248D01*
X018421Y035231D01*
X018301Y035181D01*
X018198Y035102D01*
X018119Y034999D01*
X018104Y034964D01*
X017996D01*
X017981Y034999D01*
X017902Y035102D01*
X017799Y035181D01*
X017679Y035231D01*
X01755Y035248D01*
X017421Y035231D01*
X017301Y035181D01*
X017198Y035102D01*
X017119Y034999D01*
X017104Y034964D01*
X016996D01*
X016981Y034999D01*
X016902Y035102D01*
X016799Y035181D01*
X016679Y035231D01*
X01655Y035248D01*
X016421Y035231D01*
X016301Y035181D01*
X016198Y035102D01*
X016119Y034999D01*
X016104Y034964D01*
X015996D01*
X015981Y034999D01*
X015902Y035102D01*
X015799Y035181D01*
X015679Y035231D01*
X01555Y035248D01*
X015421Y035231D01*
X015301Y035181D01*
X015198Y035102D01*
X015119Y034999D01*
X015104Y034964D01*
X014996D01*
X014981Y034999D01*
X014902Y035102D01*
X014799Y035181D01*
X014679Y035231D01*
X01455Y035248D01*
X014421Y035231D01*
X014301Y035181D01*
X014198Y035102D01*
X014119Y034999D01*
X014104Y034964D01*
X013996D01*
X013981Y034999D01*
X013902Y035102D01*
X013799Y035181D01*
X013679Y035231D01*
X01355Y035248D01*
X013421Y035231D01*
X013301Y035181D01*
X013198Y035102D01*
X013119Y034999D01*
X013104Y034964D01*
X012996D01*
X012981Y034999D01*
X012902Y035102D01*
X012799Y035181D01*
X012679Y035231D01*
X01255Y035248D01*
X012421Y035231D01*
X012301Y035181D01*
X012198Y035102D01*
X012119Y034999D01*
X012069Y034879D01*
X012052Y03475D01*
X012069Y034621D01*
X012119Y034501D01*
X012198Y034398D01*
X012301Y034319D01*
X012421Y034269D01*
X01255Y034252D01*
X012679Y034269D01*
X012799Y034319D01*
X012902Y034398D01*
X012981Y034501D01*
X012996Y034536D01*
X013104D01*
X013119Y034501D01*
X013198Y034398D01*
X013301Y034319D01*
X013421Y034269D01*
X01355Y034252D01*
X013679Y034269D01*
X013799Y034319D01*
X013902Y034398D01*
X013981Y034501D01*
X013996Y034536D01*
X014104D01*
X014119Y034501D01*
X014198Y034398D01*
X014301Y034319D01*
X014421Y034269D01*
X01455Y034252D01*
X014679Y034269D01*
X014799Y034319D01*
X014902Y034398D01*
X014981Y034501D01*
X014996Y034536D01*
X015104D01*
X015119Y034501D01*
X015198Y034398D01*
X015301Y034319D01*
X015421Y034269D01*
X01555Y034252D01*
X015679Y034269D01*
X015799Y034319D01*
X015902Y034398D01*
X015981Y034501D01*
X015996Y034536D01*
X016104D01*
X016119Y034501D01*
X016198Y034398D01*
X016301Y034319D01*
X016421Y034269D01*
X01655Y034252D01*
X016679Y034269D01*
X016799Y034319D01*
X016902Y034398D01*
X016981Y034501D01*
X016996Y034536D01*
X017104D01*
X017119Y034501D01*
X017198Y034398D01*
X017301Y034319D01*
X017421Y034269D01*
X01755Y034252D01*
X017679Y034269D01*
X017799Y034319D01*
X017902Y034398D01*
X017981Y034501D01*
X017996Y034536D01*
X018104D01*
X018119Y034501D01*
X018198Y034398D01*
X018301Y034319D01*
X018421Y034269D01*
X01855Y034252D01*
X018679Y034269D01*
X018799Y034319D01*
X018902Y034398D01*
X018981Y034501D01*
X018996Y034536D01*
X019104D01*
X019119Y034501D01*
X019198Y034398D01*
X019301Y034319D01*
X019421Y034269D01*
X01955Y034252D01*
X019679Y034269D01*
X019799Y034319D01*
X019902Y034398D01*
X019981Y034501D01*
X019996Y034536D01*
X020104D01*
X020119Y034501D01*
X020198Y034398D01*
X020301Y034319D01*
X020421Y034269D01*
X02055Y034252D01*
X020679Y034269D01*
X020799Y034319D01*
X020902Y034398D01*
X020981Y034501D01*
X020996Y034536D01*
X021104D01*
X021119Y034501D01*
X021198Y034398D01*
X021301Y034319D01*
X021421Y034269D01*
X02155Y034252D01*
X021679Y034269D01*
X021799Y034319D01*
X021902Y034398D01*
X021981Y034501D01*
X021996Y034536D01*
X022104D01*
X022119Y034501D01*
X022198Y034398D01*
X022301Y034319D01*
X022421Y034269D01*
X02255Y034252D01*
X022679Y034269D01*
X022799Y034319D01*
X022902Y034398D01*
X022981Y034501D01*
X022996Y034536D01*
X023104D01*
X023119Y034501D01*
X023198Y034398D01*
X023301Y034319D01*
X023421Y034269D01*
X02355Y034252D01*
X023679Y034269D01*
X023799Y034319D01*
X023902Y034398D01*
X023981Y034501D01*
X023996Y034536D01*
X024104D01*
X024119Y034501D01*
X024198Y034398D01*
X024301Y034319D01*
X024421Y034269D01*
X02455Y034252D01*
X024679Y034269D01*
X024799Y034319D01*
X024902Y034398D01*
X024981Y034501D01*
X025031Y034621D01*
X025048Y03475D01*
X025031Y034879D01*
X024981Y034999D01*
X024902Y035102D01*
X024799Y035181D01*
X024679Y035231D01*
X02455Y035248D01*
D02*
G37*
G36*
X027044Y035244D02*
X026056D01*
Y034256D01*
X027044D01*
Y035244D01*
D02*
G37*
G36*
X0339Y026504D02*
X033769Y026487D01*
X033648Y026437D01*
X033543Y026357D01*
X033463Y026252D01*
X033413Y026131D01*
X033396Y026D01*
X033413Y025869D01*
X033463Y025748D01*
X033543Y025643D01*
X033648Y025563D01*
X033769Y025513D01*
X0339Y025496D01*
X034031Y025513D01*
X034152Y025563D01*
X034257Y025643D01*
X034337Y025748D01*
X034387Y025869D01*
X034404Y026D01*
X034387Y026131D01*
X034337Y026252D01*
X034257Y026357D01*
X034152Y026437D01*
X034031Y026487D01*
X0339Y026504D01*
D02*
G37*
G36*
X02455Y025248D02*
X024421Y025231D01*
X024301Y025181D01*
X024198Y025102D01*
X024119Y024999D01*
X024104Y024964D01*
X023996D01*
X023981Y024999D01*
X023902Y025102D01*
X023799Y025181D01*
X023679Y025231D01*
X02355Y025248D01*
X023421Y025231D01*
X023301Y025181D01*
X023198Y025102D01*
X023119Y024999D01*
X023104Y024964D01*
X022996D01*
X022981Y024999D01*
X022902Y025102D01*
X022799Y025181D01*
X022679Y025231D01*
X02255Y025248D01*
X022421Y025231D01*
X022301Y025181D01*
X022198Y025102D01*
X022119Y024999D01*
X022104Y024964D01*
X021996D01*
X021981Y024999D01*
X021902Y025102D01*
X021799Y025181D01*
X021679Y025231D01*
X02155Y025248D01*
X021421Y025231D01*
X021301Y025181D01*
X021198Y025102D01*
X021119Y024999D01*
X021104Y024964D01*
X020996D01*
X020981Y024999D01*
X020902Y025102D01*
X020799Y025181D01*
X020679Y025231D01*
X02055Y025248D01*
X020421Y025231D01*
X020301Y025181D01*
X020198Y025102D01*
X020119Y024999D01*
X020104Y024964D01*
X019996D01*
X019981Y024999D01*
X019902Y025102D01*
X019799Y025181D01*
X019679Y025231D01*
X01955Y025248D01*
X019421Y025231D01*
X019301Y025181D01*
X019198Y025102D01*
X019119Y024999D01*
X019104Y024964D01*
X018996D01*
X018981Y024999D01*
X018902Y025102D01*
X018799Y025181D01*
X018679Y025231D01*
X01855Y025248D01*
X018421Y025231D01*
X018301Y025181D01*
X018198Y025102D01*
X018119Y024999D01*
X018104Y024964D01*
X017996D01*
X017981Y024999D01*
X017902Y025102D01*
X017799Y025181D01*
X017679Y025231D01*
X01755Y025248D01*
X017421Y025231D01*
X017301Y025181D01*
X017198Y025102D01*
X017119Y024999D01*
X017104Y024964D01*
X016996D01*
X016981Y024999D01*
X016902Y025102D01*
X016799Y025181D01*
X016679Y025231D01*
X01655Y025248D01*
X016421Y025231D01*
X016301Y025181D01*
X016198Y025102D01*
X016119Y024999D01*
X016104Y024964D01*
X015996D01*
X015981Y024999D01*
X015902Y025102D01*
X015799Y025181D01*
X015679Y025231D01*
X01555Y025248D01*
X015421Y025231D01*
X015301Y025181D01*
X015198Y025102D01*
X015119Y024999D01*
X015104Y024964D01*
X014996D01*
X014981Y024999D01*
X014902Y025102D01*
X014799Y025181D01*
X014679Y025231D01*
X01455Y025248D01*
X014421Y025231D01*
X014301Y025181D01*
X014198Y025102D01*
X014119Y024999D01*
X014104Y024964D01*
X013996D01*
X013981Y024999D01*
X013902Y025102D01*
X013799Y025181D01*
X013679Y025231D01*
X01355Y025248D01*
X013421Y025231D01*
X013301Y025181D01*
X013198Y025102D01*
X013119Y024999D01*
X013104Y024964D01*
X012996D01*
X012981Y024999D01*
X012902Y025102D01*
X012799Y025181D01*
X012679Y025231D01*
X01255Y025248D01*
X012421Y025231D01*
X012301Y025181D01*
X012198Y025102D01*
X012119Y024999D01*
X012069Y024879D01*
X012052Y02475D01*
X012069Y024621D01*
X012119Y024501D01*
X012198Y024398D01*
X012301Y024319D01*
X012421Y024269D01*
X01255Y024252D01*
X012679Y024269D01*
X012799Y024319D01*
X012902Y024398D01*
X012981Y024501D01*
X012996Y024536D01*
X013104D01*
X013119Y024501D01*
X013198Y024398D01*
X013301Y024319D01*
X013421Y024269D01*
X01355Y024252D01*
X013679Y024269D01*
X013799Y024319D01*
X013902Y024398D01*
X013981Y024501D01*
X013996Y024536D01*
X014104D01*
X014119Y024501D01*
X014198Y024398D01*
X014301Y024319D01*
X014421Y024269D01*
X01455Y024252D01*
X014679Y024269D01*
X014799Y024319D01*
X014902Y024398D01*
X014981Y024501D01*
X014996Y024536D01*
X015104D01*
X015119Y024501D01*
X015198Y024398D01*
X015301Y024319D01*
X015421Y024269D01*
X01555Y024252D01*
X015679Y024269D01*
X015799Y024319D01*
X015902Y024398D01*
X015981Y024501D01*
X015996Y024536D01*
X016104D01*
X016119Y024501D01*
X016198Y024398D01*
X016301Y024319D01*
X016421Y024269D01*
X01655Y024252D01*
X016679Y024269D01*
X016799Y024319D01*
X016902Y024398D01*
X016981Y024501D01*
X016996Y024536D01*
X017104D01*
X017119Y024501D01*
X017198Y024398D01*
X017301Y024319D01*
X017421Y024269D01*
X01755Y024252D01*
X017679Y024269D01*
X017799Y024319D01*
X017902Y024398D01*
X017981Y024501D01*
X017996Y024536D01*
X018104D01*
X018119Y024501D01*
X018198Y024398D01*
X018301Y024319D01*
X018421Y024269D01*
X01855Y024252D01*
X018679Y024269D01*
X018799Y024319D01*
X018902Y024398D01*
X018981Y024501D01*
X018996Y024536D01*
X019104D01*
X019119Y024501D01*
X019198Y024398D01*
X019301Y024319D01*
X019421Y024269D01*
X01955Y024252D01*
X019679Y024269D01*
X019799Y024319D01*
X019902Y024398D01*
X019981Y024501D01*
X019996Y024536D01*
X020104D01*
X020119Y024501D01*
X020198Y024398D01*
X020301Y024319D01*
X020421Y024269D01*
X02055Y024252D01*
X020679Y024269D01*
X020799Y024319D01*
X020902Y024398D01*
X020981Y024501D01*
X020996Y024536D01*
X021104D01*
X021119Y024501D01*
X021198Y024398D01*
X021301Y024319D01*
X021421Y024269D01*
X02155Y024252D01*
X021679Y024269D01*
X021799Y024319D01*
X021902Y024398D01*
X021981Y024501D01*
X021996Y024536D01*
X022104D01*
X022119Y024501D01*
X022198Y024398D01*
X022301Y024319D01*
X022421Y024269D01*
X02255Y024252D01*
X022679Y024269D01*
X022799Y024319D01*
X022902Y024398D01*
X022981Y024501D01*
X022996Y024536D01*
X023104D01*
X023119Y024501D01*
X023198Y024398D01*
X023301Y024319D01*
X023421Y024269D01*
X02355Y024252D01*
X023679Y024269D01*
X023799Y024319D01*
X023902Y024398D01*
X023981Y024501D01*
X023996Y024536D01*
X024104D01*
X024119Y024501D01*
X024198Y024398D01*
X024301Y024319D01*
X024421Y024269D01*
X02455Y024252D01*
X024679Y024269D01*
X024799Y024319D01*
X024902Y024398D01*
X024981Y024501D01*
X025031Y024621D01*
X025048Y02475D01*
X025031Y024879D01*
X024981Y024999D01*
X024902Y025102D01*
X024799Y025181D01*
X024679Y025231D01*
X02455Y025248D01*
D02*
G37*
G36*
X02655D02*
X026421Y025231D01*
X026301Y025181D01*
X026198Y025102D01*
X026119Y024999D01*
X026069Y024879D01*
X026052Y02475D01*
X026069Y024621D01*
X026119Y024501D01*
X026198Y024398D01*
X026301Y024319D01*
X026421Y024269D01*
X02655Y024252D01*
X026679Y024269D01*
X026799Y024319D01*
X026902Y024398D01*
X026981Y024501D01*
X027031Y024621D01*
X027048Y02475D01*
X027031Y024879D01*
X026981Y024999D01*
X026902Y025102D01*
X026799Y025181D01*
X026679Y025231D01*
X02655Y025248D01*
D02*
G37*
G36*
X0345Y023603D02*
X034363Y02359D01*
X034231Y02355D01*
X034109Y023485D01*
X034003Y023397D01*
X033915Y023291D01*
X03385Y023169D01*
X03381Y023037D01*
X033797Y0229D01*
X03381Y022763D01*
X03385Y022631D01*
X033915Y022509D01*
X034003Y022403D01*
X034109Y022315D01*
X034231Y02225D01*
X034363Y02221D01*
X0345Y022197D01*
X034637Y02221D01*
X034769Y02225D01*
X034891Y022315D01*
X034997Y022403D01*
X035085Y022509D01*
X03515Y022631D01*
X03519Y022763D01*
X035203Y0229D01*
X03519Y023037D01*
X03515Y023169D01*
X035085Y023291D01*
X034997Y023397D01*
X034891Y023485D01*
X034769Y02355D01*
X034637Y02359D01*
X0345Y023603D01*
D02*
G37*
G36*
X02555Y02178D02*
X025413Y021761D01*
X025285Y021709D01*
X025176Y021624D01*
X025092Y021515D01*
X025039Y021387D01*
X025021Y02125D01*
X025039Y021113D01*
X025092Y020985D01*
X025176Y020876D01*
X025285Y020791D01*
X025413Y020739D01*
X02555Y02072D01*
X025687Y020739D01*
X025815Y020791D01*
X025925Y020876D01*
X026009Y020985D01*
X026062Y021113D01*
X02608Y02125D01*
X026062Y021387D01*
X026009Y021515D01*
X025925Y021624D01*
X025815Y021709D01*
X025687Y021761D01*
X02555Y02178D01*
D02*
G37*
G36*
X02305D02*
X022913Y021761D01*
X022785Y021709D01*
X022676Y021624D01*
X022591Y021515D01*
X022539Y021387D01*
X02252Y02125D01*
X022539Y021113D01*
X022591Y020985D01*
X022676Y020876D01*
X022785Y020791D01*
X022913Y020739D01*
X02305Y02072D01*
X023187Y020739D01*
X023315Y020791D01*
X023424Y020876D01*
X023509Y020985D01*
X023561Y021113D01*
X02358Y02125D01*
X023561Y021387D01*
X023509Y021515D01*
X023424Y021624D01*
X023315Y021709D01*
X023187Y021761D01*
X02305Y02178D01*
D02*
G37*
G36*
X0215D02*
X021363Y021761D01*
X021235Y021709D01*
X021126Y021624D01*
X021041Y021515D01*
X020989Y021387D01*
X02097Y02125D01*
X020989Y021113D01*
X021041Y020985D01*
X021126Y020876D01*
X021235Y020791D01*
X021363Y020739D01*
X0215Y02072D01*
X021637Y020739D01*
X021765Y020791D01*
X021874Y020876D01*
X021959Y020985D01*
X022011Y021113D01*
X02203Y02125D01*
X022011Y021387D01*
X021959Y021515D01*
X021874Y021624D01*
X021765Y021709D01*
X021637Y021761D01*
X0215Y02178D01*
D02*
G37*
G36*
X0199D02*
X019763Y021761D01*
X019635Y021709D01*
X019526Y021624D01*
X019441Y021515D01*
X019389Y021387D01*
X01937Y02125D01*
X019389Y021113D01*
X019441Y020985D01*
X019526Y020876D01*
X019635Y020791D01*
X019763Y020739D01*
X0199Y02072D01*
X020037Y020739D01*
X020165Y020791D01*
X020274Y020876D01*
X020359Y020985D01*
X020411Y021113D01*
X02043Y02125D01*
X020411Y021387D01*
X020359Y021515D01*
X020274Y021624D01*
X020165Y021709D01*
X020037Y021761D01*
X0199Y02178D01*
D02*
G37*
G36*
X013015Y020615D02*
X012185D01*
Y019785D01*
X013015D01*
Y020615D01*
D02*
G37*
G36*
X0136Y020619D02*
X013492Y020604D01*
X013391Y020562D01*
X013304Y020496D01*
X013238Y020409D01*
X013196Y020308D01*
X013181Y0202D01*
X013196Y020092D01*
X013238Y019991D01*
X013304Y019904D01*
X013391Y019838D01*
X013492Y019796D01*
X0136Y019781D01*
X013708Y019796D01*
X013809Y019838D01*
X013896Y019904D01*
X013962Y019991D01*
X014004Y020092D01*
X014019Y0202D01*
X014004Y020308D01*
X013962Y020409D01*
X013896Y020496D01*
X013809Y020562D01*
X013708Y020604D01*
X0136Y020619D01*
D02*
G37*
G36*
X03205Y019354D02*
X031938Y019339D01*
X031833Y019296D01*
X031743Y019227D01*
X031674Y019137D01*
X031631Y019032D01*
X031616Y01892D01*
Y01858D01*
X031631Y018468D01*
X031674Y018363D01*
X031743Y018273D01*
X031833Y018204D01*
X031938Y018161D01*
X03205Y018146D01*
X032162Y018161D01*
X032267Y018204D01*
X032357Y018273D01*
X032426Y018363D01*
X032469Y018468D01*
X032484Y01858D01*
Y01892D01*
X032469Y019032D01*
X032426Y019137D01*
X032357Y019227D01*
X032267Y019296D01*
X032162Y019339D01*
X03205Y019354D01*
D02*
G37*
G36*
X03105D02*
X030938Y019339D01*
X030833Y019296D01*
X030743Y019227D01*
X030674Y019137D01*
X030631Y019032D01*
X030616Y01892D01*
Y01858D01*
X030631Y018468D01*
X030674Y018363D01*
X030743Y018273D01*
X030833Y018204D01*
X030938Y018161D01*
X03105Y018146D01*
X031162Y018161D01*
X031267Y018204D01*
X031357Y018273D01*
X031426Y018363D01*
X031469Y018468D01*
X031484Y01858D01*
Y01892D01*
X031469Y019032D01*
X031426Y019137D01*
X031357Y019227D01*
X031267Y019296D01*
X031162Y019339D01*
X03105Y019354D01*
D02*
G37*
G36*
X039224Y0188D02*
X039087Y018787D01*
X038955Y018747D01*
X038834Y018682D01*
X038727Y018594D01*
X03864Y018488D01*
X038575Y018366D01*
X038535Y018234D01*
X038521Y018097D01*
X038535Y01796D01*
X038575Y017828D01*
X03864Y017706D01*
X038727Y017599D01*
X038834Y017512D01*
X038955Y017447D01*
X039087Y017407D01*
X039224Y017393D01*
X039362Y017407D01*
X039494Y017447D01*
X039615Y017512D01*
X039722Y017599D01*
X039809Y017706D01*
X039874Y017828D01*
X039914Y01796D01*
X039928Y018097D01*
X039914Y018234D01*
X039874Y018366D01*
X039809Y018488D01*
X039722Y018594D01*
X039615Y018682D01*
X039494Y018747D01*
X039362Y018787D01*
X039224Y0188D01*
D02*
G37*
G36*
X02775Y01778D02*
X027613Y017761D01*
X027485Y017709D01*
X027376Y017624D01*
X027291Y017515D01*
X027239Y017387D01*
X02722Y01725D01*
X027239Y017113D01*
X027291Y016985D01*
X027376Y016876D01*
X027485Y016791D01*
X027613Y016739D01*
X02775Y01672D01*
X027887Y016739D01*
X028015Y016791D01*
X028124Y016876D01*
X028209Y016985D01*
X028261Y017113D01*
X02828Y01725D01*
X028261Y017387D01*
X028209Y017515D01*
X028124Y017624D01*
X028015Y017709D01*
X027887Y017761D01*
X02775Y01778D01*
D02*
G37*
G36*
X02555D02*
X025413Y017761D01*
X025285Y017709D01*
X025176Y017624D01*
X025092Y017515D01*
X025039Y017387D01*
X025021Y01725D01*
X025039Y017113D01*
X025092Y016985D01*
X025176Y016876D01*
X025285Y016791D01*
X025413Y016739D01*
X02555Y01672D01*
X025687Y016739D01*
X025815Y016791D01*
X025925Y016876D01*
X026009Y016985D01*
X026062Y017113D01*
X02608Y01725D01*
X026062Y017387D01*
X026009Y017515D01*
X025925Y017624D01*
X025815Y017709D01*
X025687Y017761D01*
X02555Y01778D01*
D02*
G37*
G36*
X02305D02*
X022913Y017761D01*
X022785Y017709D01*
X022676Y017624D01*
X022591Y017515D01*
X022539Y017387D01*
X02252Y01725D01*
X022539Y017113D01*
X022591Y016985D01*
X022676Y016876D01*
X022785Y016791D01*
X022913Y016739D01*
X02305Y01672D01*
X023187Y016739D01*
X023315Y016791D01*
X023424Y016876D01*
X023509Y016985D01*
X023561Y017113D01*
X02358Y01725D01*
X023561Y017387D01*
X023509Y017515D01*
X023424Y017624D01*
X023315Y017709D01*
X023187Y017761D01*
X02305Y01778D01*
D02*
G37*
G36*
X0215D02*
X021363Y017761D01*
X021235Y017709D01*
X021126Y017624D01*
X021041Y017515D01*
X020989Y017387D01*
X02097Y01725D01*
X020989Y017113D01*
X021041Y016985D01*
X021126Y016876D01*
X021235Y016791D01*
X021363Y016739D01*
X0215Y01672D01*
X021637Y016739D01*
X021765Y016791D01*
X021874Y016876D01*
X021959Y016985D01*
X022011Y017113D01*
X02203Y01725D01*
X022011Y017387D01*
X021959Y017515D01*
X021874Y017624D01*
X021765Y017709D01*
X021637Y017761D01*
X0215Y01778D01*
D02*
G37*
G36*
X0199D02*
X019763Y017761D01*
X019635Y017709D01*
X019526Y017624D01*
X019441Y017515D01*
X019389Y017387D01*
X01937Y01725D01*
X019389Y017113D01*
X019441Y016985D01*
X019526Y016876D01*
X019635Y016791D01*
X019763Y016739D01*
X0199Y01672D01*
X020037Y016739D01*
X020165Y016791D01*
X020274Y016876D01*
X020359Y016985D01*
X020411Y017113D01*
X02043Y01725D01*
X020411Y017387D01*
X020359Y017515D01*
X020274Y017624D01*
X020165Y017709D01*
X020037Y017761D01*
X0199Y01778D01*
D02*
G37*
G36*
X013015Y014815D02*
X012185D01*
Y013985D01*
X013015D01*
Y014815D01*
D02*
G37*
G36*
X0136Y014819D02*
X013492Y014804D01*
X013391Y014762D01*
X013304Y014696D01*
X013238Y014609D01*
X013196Y014508D01*
X013181Y0144D01*
X013196Y014292D01*
X013238Y014191D01*
X013304Y014104D01*
X013391Y014038D01*
X013492Y013996D01*
X0136Y013981D01*
X013708Y013996D01*
X013809Y014038D01*
X013896Y014104D01*
X013962Y014191D01*
X014004Y014292D01*
X014019Y0144D01*
X014004Y014508D01*
X013962Y014609D01*
X013896Y014696D01*
X013809Y014762D01*
X013708Y014804D01*
X0136Y014819D01*
D02*
G37*
G36*
X018875Y014829D02*
X018525D01*
X018414Y014814D01*
X018311Y014771D01*
X018222Y014703D01*
X018154Y014614D01*
X018111Y014511D01*
X018096Y0144D01*
X018111Y014289D01*
X018154Y014186D01*
X018222Y014097D01*
X018311Y014029D01*
X018414Y013986D01*
X018525Y013971D01*
X018875D01*
X018986Y013986D01*
X019089Y014029D01*
X019178Y014097D01*
X019246Y014186D01*
X019289Y014289D01*
X019304Y0144D01*
X019289Y014511D01*
X019246Y014614D01*
X019178Y014703D01*
X019089Y014771D01*
X018986Y014814D01*
X018875Y014829D01*
D02*
G37*
G36*
X024475Y014779D02*
X024125D01*
X024014Y014764D01*
X023911Y014721D01*
X023822Y014653D01*
X023754Y014564D01*
X023711Y014461D01*
X023696Y01435D01*
X023711Y014239D01*
X023754Y014136D01*
X023822Y014047D01*
X023911Y013979D01*
X024014Y013936D01*
X024125Y013921D01*
X024475D01*
X024586Y013936D01*
X024689Y013979D01*
X024778Y014047D01*
X024846Y014136D01*
X024889Y014239D01*
X024904Y01435D01*
X024889Y014461D01*
X024846Y014564D01*
X024778Y014653D01*
X024689Y014721D01*
X024586Y014764D01*
X024475Y014779D01*
D02*
G37*
G36*
X021675D02*
X021325D01*
X021214Y014764D01*
X021111Y014721D01*
X021022Y014653D01*
X020954Y014564D01*
X020911Y014461D01*
X020896Y01435D01*
X020911Y014239D01*
X020954Y014136D01*
X021022Y014047D01*
X021111Y013979D01*
X021214Y013936D01*
X021325Y013921D01*
X021675D01*
X021786Y013936D01*
X021889Y013979D01*
X021978Y014047D01*
X022046Y014136D01*
X022089Y014239D01*
X022104Y01435D01*
X022089Y014461D01*
X022046Y014564D01*
X021978Y014653D01*
X021889Y014721D01*
X021786Y014764D01*
X021675Y014779D01*
D02*
G37*
G36*
X034424Y0188D02*
X034287Y018787D01*
X034155Y018747D01*
X034034Y018682D01*
X033927Y018594D01*
X03384Y018488D01*
X033775Y018366D01*
X033735Y018234D01*
X033721Y018097D01*
X033735Y01796D01*
X033775Y017828D01*
X03384Y017706D01*
X033889Y017646D01*
Y014592D01*
X033758D01*
Y013408D01*
X034942D01*
Y014592D01*
X034885D01*
Y017569D01*
X034922Y017599D01*
X035009Y017706D01*
X035074Y017828D01*
X035114Y01796D01*
X035128Y018097D01*
X035114Y018234D01*
X035074Y018366D01*
X035009Y018488D01*
X034922Y018594D01*
X034815Y018682D01*
X034694Y018747D01*
X034562Y018787D01*
X034424Y0188D01*
D02*
G37*
G36*
X03975Y012988D02*
X03958Y012974D01*
X039414Y012934D01*
X039256Y012869D01*
X039111Y01278D01*
X038981Y012669D01*
X03887Y012539D01*
X038781Y012394D01*
X038716Y012236D01*
X038676Y01207D01*
X038662Y0119D01*
X038676Y01173D01*
X038716Y011564D01*
X038781Y011406D01*
X03887Y011261D01*
X038981Y011131D01*
X039111Y01102D01*
X039256Y010931D01*
X039414Y010866D01*
X03958Y010826D01*
X03975Y010812D01*
X03992Y010826D01*
X040086Y010866D01*
X040244Y010931D01*
X040389Y01102D01*
X040519Y011131D01*
X04063Y011261D01*
X040719Y011406D01*
X040784Y011564D01*
X040824Y01173D01*
X040838Y0119D01*
X040824Y01207D01*
X040784Y012236D01*
X040719Y012394D01*
X04063Y012539D01*
X040519Y012669D01*
X040389Y01278D01*
X040244Y012869D01*
X040086Y012934D01*
X03992Y012974D01*
X03975Y012988D01*
D02*
G37*
G36*
X0116D02*
X01143Y012974D01*
X011264Y012934D01*
X011106Y012869D01*
X010961Y01278D01*
X010831Y012669D01*
X01072Y012539D01*
X010631Y012394D01*
X010566Y012236D01*
X010526Y01207D01*
X010512Y0119D01*
X010526Y01173D01*
X010566Y011564D01*
X010631Y011406D01*
X01072Y011261D01*
X010831Y011131D01*
X010961Y01102D01*
X011106Y010931D01*
X011264Y010866D01*
X01143Y010826D01*
X0116Y010812D01*
X01177Y010826D01*
X011936Y010866D01*
X012094Y010931D01*
X012239Y01102D01*
X012369Y011131D01*
X01248Y011261D01*
X012569Y011406D01*
X012634Y011564D01*
X012674Y01173D01*
X012688Y0119D01*
X012674Y01207D01*
X012634Y012236D01*
X012569Y012394D01*
X01248Y012539D01*
X012369Y012669D01*
X012239Y01278D01*
X012094Y012869D01*
X011936Y012934D01*
X01177Y012974D01*
X0116Y012988D01*
D02*
G37*
%LPD*%
D39*
X0146Y0144D02*
D03*
X0136D02*
D03*
X0146Y0202D02*
D03*
X0136D02*
D03*
D40*
X0126Y0144D02*
D03*
Y0202D02*
D03*
D41*
X036862Y023687D02*
D03*
X039224Y018097D02*
D03*
X034424D02*
D03*
X039224Y0229D02*
D03*
X0345D02*
D03*
D42*
X02655Y03475D02*
D03*
D43*
X02555D02*
D03*
X02455D02*
D03*
X02355D02*
D03*
X02255D02*
D03*
X02155D02*
D03*
X02055D02*
D03*
X01955D02*
D03*
X01855D02*
D03*
X01755D02*
D03*
X01655D02*
D03*
X01555D02*
D03*
X01455D02*
D03*
X01355D02*
D03*
X01255D02*
D03*
X02655Y02475D02*
D03*
X02555D02*
D03*
X02455D02*
D03*
X02355D02*
D03*
X02255D02*
D03*
X02155D02*
D03*
X02055D02*
D03*
X01955D02*
D03*
X01855D02*
D03*
X01755D02*
D03*
X01655D02*
D03*
X01555D02*
D03*
X01455D02*
D03*
X01355D02*
D03*
X01255D02*
D03*
D44*
X03975Y0119D02*
D03*
Y0478D02*
D03*
X0116Y0119D02*
D03*
Y0478D02*
D03*
D45*
X0215Y01725D02*
D03*
Y02125D02*
D03*
X0199Y01725D02*
D03*
Y02125D02*
D03*
X02555D02*
D03*
Y01725D02*
D03*
X02775D02*
D03*
Y02125D02*
D03*
X02305Y01725D02*
D03*
Y02125D02*
D03*
D46*
X0198Y0387D02*
D03*
D47*
Y0407D02*
D03*
D48*
X0133Y04455D02*
D03*
X0218D02*
D03*
X0198D02*
D03*
X0153D02*
D03*
D49*
X01445Y0385D02*
D03*
D50*
X01295Y0405D02*
D03*
X01545D02*
D03*
D51*
X02471Y044595D02*
D03*
X040054Y044536D02*
D03*
Y037804D02*
D03*
X02473Y037794D02*
D03*
D52*
X03435Y014D02*
D03*
X03235D02*
D03*
D53*
X0369Y026D02*
D03*
D54*
X0339D02*
D03*
D55*
X03005Y01875D02*
D03*
X03105D02*
D03*
X03205D02*
D03*
D56*
X0243Y01335D02*
D03*
X0215D02*
D03*
X0187Y0134D02*
D03*
D57*
X0243Y01435D02*
D03*
X0215D02*
D03*
X0187Y0144D02*
D03*
D58*
X036862Y023687D02*
Y035238D01*
X03765Y0229D02*
X039224D01*
X036862Y023687D02*
X03765Y0229D01*
X027505Y044595D02*
X036862Y035238D01*
X03435Y014D02*
X034387Y014037D01*
Y01806D01*
X034424Y018097D01*
X02471Y044595D02*
X027505D01*
X0198Y0407D02*
Y04455D01*
X024687Y044572D02*
X02471Y044595D01*
X021822Y044572D02*
X024687D01*
X0218Y04455D02*
X021822Y044572D01*
X0198Y04455D02*
X0218D01*
X0133D02*
X0153D01*
Y044392D02*
Y04455D01*
Y044392D02*
X01545Y044242D01*
Y0405D02*
Y044242D01*
M02*
