G04*
G04 #@! TF.GenerationSoftware,Altium Limited,Altium Designer,19.1.5 (86)*
G04*
G04 Layer_Color=128*
%FSTAX24Y24*%
%MOIN*%
G70*
G01*
G75*
%ADD59C,0.0020*%
D59*
X014443Y0144D02*
X014757D01*
X0146Y014243D02*
Y014557D01*
X012443Y0144D02*
X012757D01*
X0126Y014243D02*
Y014557D01*
X013443Y0144D02*
X013757D01*
X0136Y014243D02*
Y014557D01*
X014443Y0202D02*
X014757D01*
X0146Y020043D02*
Y020357D01*
X012443Y0202D02*
X012757D01*
X0126Y020043D02*
Y020357D01*
X013443Y0202D02*
X013757D01*
X0136Y020043D02*
Y020357D01*
X036637Y023687D02*
X037087D01*
X036862Y023462D02*
Y023912D01*
X038999Y018097D02*
X039449D01*
X039224Y017872D02*
Y018322D01*
X034199Y018097D02*
X034649D01*
X034424Y017872D02*
Y018322D01*
X038999Y0229D02*
X039449D01*
X039224Y022675D02*
Y023125D01*
X034275Y0229D02*
X034725D01*
X0345Y022675D02*
Y023125D01*
X026349Y03475D02*
X026751D01*
X02655Y034549D02*
Y034951D01*
X025349Y03475D02*
X025751D01*
X02555Y034549D02*
Y034951D01*
X024349Y03475D02*
X024751D01*
X02455Y034549D02*
Y034951D01*
X023349Y03475D02*
X023751D01*
X02355Y034549D02*
Y034951D01*
X022349Y03475D02*
X022751D01*
X02255Y034549D02*
Y034951D01*
X021349Y03475D02*
X021751D01*
X02155Y034549D02*
Y034951D01*
X020349Y03475D02*
X020751D01*
X02055Y034549D02*
Y034951D01*
X019349Y03475D02*
X019751D01*
X01955Y034549D02*
Y034951D01*
X018349Y03475D02*
X018751D01*
X01855Y034549D02*
Y034951D01*
X017349Y03475D02*
X017751D01*
X01755Y034549D02*
Y034951D01*
X016349Y03475D02*
X016751D01*
X01655Y034549D02*
Y034951D01*
X015349Y03475D02*
X015751D01*
X01555Y034549D02*
Y034951D01*
X014349Y03475D02*
X014751D01*
X01455Y034549D02*
Y034951D01*
X013349Y03475D02*
X013751D01*
X01355Y034549D02*
Y034951D01*
X012349Y03475D02*
X012751D01*
X01255Y034549D02*
Y034951D01*
X026349Y02475D02*
X026751D01*
X02655Y024549D02*
Y024951D01*
X025349Y02475D02*
X025751D01*
X02555Y024549D02*
Y024951D01*
X024349Y02475D02*
X024751D01*
X02455Y024549D02*
Y024951D01*
X023349Y02475D02*
X023751D01*
X02355Y024549D02*
Y024951D01*
X022349Y02475D02*
X022751D01*
X02255Y024549D02*
Y024951D01*
X021349Y02475D02*
X021751D01*
X02155Y024549D02*
Y024951D01*
X020349Y02475D02*
X020751D01*
X02055Y024549D02*
Y024951D01*
X019349Y02475D02*
X019751D01*
X01955Y024549D02*
Y024951D01*
X018349Y02475D02*
X018751D01*
X01855Y024549D02*
Y024951D01*
X017349Y02475D02*
X017751D01*
X01755Y024549D02*
Y024951D01*
X016349Y02475D02*
X016751D01*
X01655Y024549D02*
Y024951D01*
X015349Y02475D02*
X015751D01*
X01555Y024549D02*
Y024951D01*
X014349Y02475D02*
X014751D01*
X01455Y024549D02*
Y024951D01*
X013349Y02475D02*
X013751D01*
X01355Y024549D02*
Y024951D01*
X012349Y02475D02*
X012751D01*
X01255Y024549D02*
Y024951D01*
X038963Y0119D02*
X040537D01*
X03975Y011113D02*
Y012687D01*
X038963Y0478D02*
X040537D01*
X03975Y047013D02*
Y048587D01*
X010813Y0119D02*
X012387D01*
X0116Y011113D02*
Y012687D01*
X010813Y0478D02*
X012387D01*
X0116Y047013D02*
Y048587D01*
X021325Y01725D02*
X021675D01*
X0215Y017075D02*
Y017425D01*
X021325Y02125D02*
X021675D01*
X0215Y021075D02*
Y021425D01*
X019725Y01725D02*
X020075D01*
X0199Y017075D02*
Y017425D01*
X019725Y02125D02*
X020075D01*
X0199Y021075D02*
Y021425D01*
X019623Y0387D02*
X019977D01*
X0198Y038523D02*
Y038877D01*
X019623Y0407D02*
X019977D01*
X0198Y040523D02*
Y040877D01*
X01305Y04455D02*
X01355D01*
X0133Y0443D02*
Y0448D01*
X02155Y04455D02*
X02205D01*
X0218Y0443D02*
Y0448D01*
X01955Y04455D02*
X02005D01*
X0198Y0443D02*
Y0448D01*
X01505Y04455D02*
X01555D01*
X0153Y0443D02*
Y0448D01*
X014155Y0385D02*
X014745D01*
X01445Y038205D02*
Y038795D01*
X012655Y0405D02*
X013245D01*
X01295Y040205D02*
Y040795D01*
X015155Y0405D02*
X015745D01*
X01545Y040205D02*
Y040795D01*
X02446Y044595D02*
X02496D01*
X02471Y044345D02*
Y044845D01*
X039804Y044536D02*
X040304D01*
X040054Y044286D02*
Y044786D01*
X039804Y037804D02*
X040304D01*
X040054Y037554D02*
Y038054D01*
X02448Y037794D02*
X02498D01*
X02473Y037544D02*
Y038044D01*
X034094Y014D02*
X034606D01*
X03435Y013744D02*
Y014256D01*
X032094Y014D02*
X032606D01*
X03235Y013744D02*
Y014256D01*
X036725Y026D02*
X037075D01*
X0369Y025825D02*
Y026175D01*
X033725Y026D02*
X034075D01*
X0339Y025825D02*
Y026175D01*
X025375Y02125D02*
X025725D01*
X02555Y021075D02*
Y021425D01*
X025375Y01725D02*
X025725D01*
X02555Y017075D02*
Y017425D01*
X02989Y01875D02*
X03021D01*
X03005Y01859D02*
Y01891D01*
X03089Y01875D02*
X03121D01*
X03105Y01859D02*
Y01891D01*
X03189Y01875D02*
X03221D01*
X03205Y01859D02*
Y01891D01*
X027575Y01725D02*
X027925D01*
X02775Y017075D02*
Y017425D01*
X027575Y02125D02*
X027925D01*
X02775Y021075D02*
Y021425D01*
X02414Y01335D02*
X02446D01*
X0243Y01319D02*
Y01351D01*
X02414Y01435D02*
X02446D01*
X0243Y01419D02*
Y01451D01*
X022875Y01725D02*
X023225D01*
X02305Y017075D02*
Y017425D01*
X022875Y02125D02*
X023225D01*
X02305Y021075D02*
Y021425D01*
X02134Y01435D02*
X02166D01*
X0215Y01419D02*
Y01451D01*
X02134Y01335D02*
X02166D01*
X0215Y01319D02*
Y01351D01*
X01854Y0134D02*
X01886D01*
X0187Y01324D02*
Y01356D01*
X01854Y0144D02*
X01886D01*
X0187Y01424D02*
Y01456D01*
M02*
