M48
;Layer_Color=9474304
;FILE_FORMAT=2:4
INCH,LZ
;TYPE=PLATED
T1F00S00C0.0315
T2F00S00C0.0320
T3F00S00C0.0350
T4F00S00C0.0354
T5F00S00C0.0402
T6F00S00C0.0450
T7F00S00C0.0500
T8F00S00C0.0512
T10F00S00C0.1575
%
T01
X0126Y0144
X0136
X0146
Y0202
X0136
X0126
T02
X0187Y0134
Y0144
X0215Y01435
Y01335
X0243
Y01435
X03205Y01875
X03105
X03005
T03
X0339Y026
X0369
X02775Y02125
X02555
X02305
X0215
X0199
Y01725
X0215
X02305
X02555
X02775
T04
X0198Y0387
Y0407
T05
X01655Y02475
X01755
X01855
X01955
X02055
X02155
X02255
X02355
X02455
X02555
X02655
X01555
X01455
X01355
X01255
Y03475
X01355
X01455
X01555
X01655
X01755
X01855
X01955
X02055
X02155
X02255
X02355
X02455
X02555
X02655
T06
X034424Y018097
X039224
Y0229
X036862Y023687
X0345Y0229
T07
X0133Y04455
X0153
X0198
X0218
X02471Y044595
X02473Y037794
X040054Y037804
Y044536
T08
X03235Y014
X03435
T10
X0116Y0119
X03975
Y0478
X0116
M30
